<svg width="19" height="20" viewBox="0 0 19 20" fill="none" xmlns="http://www.w3.org/2000/svg">
<path fill-rule="evenodd" clip-rule="evenodd" d="M2.70173 2.85714C1.91691 2.85714 1.28068 3.49673 1.28068 4.28571V17.619C1.28068 18.408 1.91691 19.0476 2.70173 19.0476H15.9649C16.7497 19.0476 17.3859 18.408 17.3859 17.619V4.28571C17.3859 3.49673 16.7497 2.85714 15.9649 2.85714H2.70173ZM0.333313 4.28571C0.333313 2.97074 1.39369 1.90476 2.70173 1.90476H15.9649C17.2729 1.90476 18.3333 2.97074 18.3333 4.28571V17.619C18.3333 18.934 17.2729 20 15.9649 20H2.70173C1.39369 20 0.333313 18.934 0.333313 17.619V4.28571Z" fill="#525D7A"/>
<path fill-rule="evenodd" clip-rule="evenodd" d="M13.1227 0C13.3844 0 13.5964 0.213198 13.5964 0.476191V4.28572C13.5964 4.54871 13.3844 4.76191 13.1227 4.76191C12.8611 4.76191 12.6491 4.54871 12.6491 4.28572V0.476191C12.6491 0.213198 12.8611 0 13.1227 0Z" fill="#525D7A"/>
<path fill-rule="evenodd" clip-rule="evenodd" d="M5.54383 0C5.80544 0 6.01751 0.213198 6.01751 0.476191V4.28572C6.01751 4.54871 5.80544 4.76191 5.54383 4.76191C5.28222 4.76191 5.07014 4.54871 5.07014 4.28572V0.476191C5.07014 0.213198 5.28222 0 5.54383 0Z" fill="#525D7A"/>
<path fill-rule="evenodd" clip-rule="evenodd" d="M0.333313 8.09525C0.333313 7.83226 0.545389 7.61906 0.806997 7.61906H17.8596C18.1212 7.61906 18.3333 7.83226 18.3333 8.09525C18.3333 8.35824 18.1212 8.57144 17.8596 8.57144H0.806997C0.545389 8.57144 0.333313 8.35824 0.333313 8.09525Z" fill="#525D7A"/>
</svg>
