<svg width="20" height="20" viewBox="0 0 20 20" fill="none" xmlns="http://www.w3.org/2000/svg">
<path fill-rule="evenodd" clip-rule="evenodd" d="M9.93027 0.952381C7.0428 0.952381 4.69387 3.26867 4.69387 6.14131C4.69387 8.85503 6.05623 11.4111 7.46369 13.3196C8.16306 14.2679 8.86317 15.0424 9.38816 15.5793C9.60254 15.7986 9.78727 15.9778 9.93026 16.1126C10.0733 15.9778 10.258 15.7986 10.4724 15.5793C10.9974 15.0424 11.6975 14.2679 12.3968 13.3196C13.8043 11.4111 15.1667 8.85503 15.1667 6.14131C15.1667 3.26867 12.8177 0.952381 9.93027 0.952381ZM9.93027 16.7634C9.60926 17.1216 9.60899 17.1214 9.60899 17.1214L9.60739 17.12L9.60344 17.1166L9.58947 17.1045C9.57749 17.094 9.56025 17.0789 9.53809 17.0592C9.49379 17.0198 9.42981 16.9621 9.34898 16.8871C9.18734 16.7372 8.95809 16.5179 8.68375 16.2373C8.13557 15.6767 7.40479 14.8684 6.67327 13.8765C5.21894 11.9044 3.71951 9.14937 3.71951 6.14131C3.71951 2.75399 6.49318 0 9.93027 0C13.3673 0 16.141 2.75399 16.141 6.14131C16.141 9.14937 14.6416 11.9044 13.1873 13.8765C12.4557 14.8684 11.725 15.6767 11.1768 16.2373C10.9024 16.5179 10.6732 16.7372 10.5116 16.8871C10.4307 16.9621 10.3667 17.0198 10.3224 17.0592C10.3003 17.0789 10.283 17.094 10.2711 17.1045L10.2571 17.1166L10.2531 17.12L10.2519 17.121C10.2519 17.121 10.2513 17.1216 9.93027 16.7634ZM9.93027 16.7634L10.2519 17.121C10.0682 17.2784 9.79273 17.2787 9.60899 17.1214L9.93027 16.7634ZM9.93026 3.77078C8.61665 3.77078 7.54135 4.82645 7.54135 6.14131C7.54135 7.45617 8.61665 8.51185 9.93026 8.51185C11.2439 8.51185 12.3192 7.45617 12.3192 6.14131C12.3192 4.82645 11.2439 3.77078 9.93026 3.77078ZM6.56699 6.14131C6.56699 4.31177 8.06703 2.8184 9.93026 2.8184C11.7935 2.8184 13.2935 4.31177 13.2935 6.14131C13.2935 7.97086 11.7935 9.46423 9.93026 9.46423C8.06703 9.46423 6.56699 7.97086 6.56699 6.14131ZM6.99467 16.4364C7.00821 16.6991 6.80134 16.9228 6.53262 16.936C4.69947 17.0262 3.36287 17.22 2.49818 17.468C2.06288 17.5928 1.77871 17.7228 1.61378 17.8384C1.55675 17.8784 1.52234 17.9102 1.50178 17.9333C1.56635 17.9859 1.68251 18.0558 1.86876 18.1342C2.26282 18.3001 2.86311 18.4604 3.64212 18.5989C5.19214 18.8746 7.35386 19.0476 9.75641 19.0476C12.1587 19.0476 14.4448 18.8746 16.1203 18.5979C16.9619 18.4589 17.6269 18.2973 18.0706 18.128C18.2682 18.0526 18.4 17.9837 18.4798 17.9283C18.4563 17.9067 18.4221 17.8794 18.3725 17.8468C18.1899 17.727 17.8818 17.5952 17.4236 17.4695C16.5139 17.22 15.1327 17.0262 13.2999 16.936C13.0312 16.9228 12.8243 16.6991 12.8379 16.4364C12.8514 16.1738 13.0802 15.9716 13.3489 15.9848C15.2138 16.0766 16.6768 16.2755 17.6869 16.5526C18.1886 16.6902 18.6093 16.8552 18.9155 17.056C19.2104 17.2495 19.5 17.5468 19.5 17.9635C19.5 18.2841 19.2955 18.5117 19.1181 18.6503C18.9328 18.7951 18.6899 18.914 18.425 19.0151C17.8902 19.2192 17.1496 19.3938 16.2827 19.537C14.5412 19.8246 12.1991 20 9.75641 20C7.31396 20 5.09106 19.8246 3.46772 19.5359C2.66004 19.3923 1.97647 19.2165 1.48333 19.0089C1.23862 18.9059 1.01315 18.7837 0.841182 18.634C0.671042 18.4858 0.5 18.2616 0.5 17.9635C0.5 17.5642 0.757174 17.2669 1.04589 17.0645C1.33837 16.8594 1.74112 16.6926 2.22384 16.5541C3.19519 16.2755 4.61906 16.0766 6.4836 15.9848C6.75233 15.9716 6.98114 16.1738 6.99467 16.4364Z" fill="#525D7A"/>
</svg>
