<svg width="20" height="20" viewBox="0 0 20 20" fill="none" xmlns="http://www.w3.org/2000/svg">
<path fill-rule="evenodd" clip-rule="evenodd" d="M12.0708 2.25471e-05C12.2675 0.00189191 12.4444 0.119787 12.5219 0.300536L19.9599 17.6559C20.0256 17.8091 20.0099 17.9851 19.9181 18.1242C19.8263 18.2634 19.6708 18.3471 19.5041 18.3471H16.1322C15.8584 18.3471 15.6364 18.1251 15.6364 17.8512C15.6364 17.5774 15.8584 17.3554 16.1322 17.3554H18.7521L13.6878 5.53871L12.4809 7.37936C12.3917 7.51538 12.2414 7.59901 12.0788 7.60315C11.9162 7.60729 11.7619 7.53142 11.6659 7.40011L10.2697 5.49054C10.133 5.57899 9.95552 5.59833 9.79604 5.52636C9.54642 5.41371 9.43538 5.12004 9.54802 4.87042L11.6141 0.291906C11.695 0.112662 11.8742 -0.00184681 12.0708 2.25471e-05ZM10.7921 4.52468L12.044 6.23698L13.2191 4.44498L12.0544 1.72736L10.7921 4.52468ZM7.93388 3.30578C8.12551 3.30578 8.29998 3.4162 8.38202 3.58938L15.82 19.2919C15.8928 19.4455 15.8818 19.6257 15.7909 19.7693C15.7 19.9129 15.5419 20 15.3719 20H0.495869C0.325888 20 0.167752 19.9129 0.0768551 19.7693C-0.0140421 19.6257 -0.0250323 19.4455 0.0477342 19.2919L7.48575 3.58938C7.56778 3.4162 7.74226 3.30578 7.93388 3.30578ZM1.27944 19.0083H14.5883L9.91211 9.13625L8.28452 10.7639C8.09087 10.9575 7.7769 10.9575 7.58325 10.7639L5.95565 9.13625L1.27944 19.0083ZM6.40646 8.18454L7.93388 9.71196L9.4613 8.18454L7.93388 4.95999L6.40646 8.18454Z" fill="#525D7A"/>
</svg>
