<svg width="21" height="18" viewBox="0 0 21 18" fill="none" xmlns="http://www.w3.org/2000/svg">
<path fill-rule="evenodd" clip-rule="evenodd" d="M1.86069 12.6253C2.62841 11.8235 3.67477 11.3684 4.77102 11.3684H12.0274C13.1236 11.3684 14.17 11.8235 14.9377 12.6253C15.7047 13.4264 16.1317 14.5082 16.1317 15.6316V17.5263C16.1317 17.7879 15.9185 18 15.6555 18C15.3925 18 15.1793 17.7879 15.1793 17.5263V15.6316C15.1793 14.7449 14.8419 13.8989 14.248 13.2787C13.6549 12.6592 12.8556 12.3158 12.0274 12.3158H4.77102C3.94277 12.3158 3.14345 12.6592 2.55035 13.2787C1.9565 13.8989 1.61905 14.7449 1.61905 15.6316V17.5263C1.61905 17.7879 1.40585 18 1.14285 18C0.879857 18 0.666656 17.7879 0.666656 17.5263V15.6316C0.666656 14.5082 1.09371 13.4264 1.86069 12.6253Z" fill="#525D7A"/>
<path fill-rule="evenodd" clip-rule="evenodd" d="M8.39919 0.947372C6.68003 0.947372 5.24722 2.40986 5.24722 4.26317C5.24722 6.11649 6.68003 7.57898 8.39919 7.57898C10.1183 7.57898 11.5512 6.11649 11.5512 4.26317C11.5512 2.40986 10.1183 0.947372 8.39919 0.947372ZM4.29482 4.26317C4.29482 1.93073 6.11078 0 8.39919 0C10.6876 0 12.5035 1.93073 12.5035 4.26317C12.5035 6.59562 10.6876 8.52635 8.39919 8.52635C6.11078 8.52635 4.29482 6.59562 4.29482 4.26317Z" fill="#525D7A"/>
<path fill-rule="evenodd" clip-rule="evenodd" d="M17.0097 11.8412C17.0785 11.5887 17.3401 11.4395 17.5939 11.5079C18.4791 11.7466 19.2585 12.2843 19.8129 13.0312C20.367 13.7777 20.666 14.6923 20.6667 15.6311V17.5262C20.6667 17.7878 20.4535 17.9999 20.1905 17.9999C19.9275 17.9999 19.7143 17.7878 19.7143 17.5262V15.6318C19.7137 14.8913 19.4776 14.1746 19.0467 13.5939C18.616 13.0136 18.0163 12.6034 17.3447 12.4223C17.0909 12.3538 16.9409 12.0937 17.0097 11.8412Z" fill="#525D7A"/>
<path fill-rule="evenodd" clip-rule="evenodd" d="M13.3813 0.47373C13.4495 0.221091 13.7108 0.0713469 13.9648 0.139267C14.8522 0.376604 15.6342 0.914451 16.1902 1.66258C16.7459 2.41034 17.0456 3.32693 17.0456 4.26778C17.0456 5.20862 16.7459 6.12521 16.1902 6.87297C15.6342 7.6211 14.8522 8.15895 13.9648 8.39629C13.7108 8.46421 13.4495 8.31446 13.3813 8.06182C13.313 7.80918 13.4635 7.54932 13.7175 7.4814C14.3909 7.30132 14.9924 6.89104 15.4243 6.3098C15.8566 5.72819 16.0932 5.00979 16.0932 4.26778C16.0932 3.52576 15.8566 2.80736 15.4243 2.22575C14.9924 1.64451 14.3909 1.23423 13.7175 1.05415C13.4635 0.986233 13.313 0.726369 13.3813 0.47373Z" fill="#525D7A"/>
</svg>
