<svg width="17" height="16" viewBox="0 0 17 16" fill="none" xmlns="http://www.w3.org/2000/svg">
<path fill-rule="evenodd" clip-rule="evenodd" d="M6.95041 1.2438C4.07488 1.2438 1.7438 3.57488 1.7438 6.45041C1.7438 9.32594 4.07488 11.657 6.95041 11.657C9.82594 11.657 12.157 9.32594 12.157 6.45041C12.157 3.57488 9.82594 1.2438 6.95041 1.2438ZM1 6.45041C1 3.16409 3.66409 0.5 6.95041 0.5C10.2367 0.5 12.9008 3.16409 12.9008 6.45041C12.9008 7.95974 12.3389 9.33782 11.4128 10.3868L15.8911 14.8651C16.0363 15.0104 16.0363 15.2458 15.8911 15.3911C15.7458 15.5363 15.5104 15.5363 15.3651 15.3911L10.8868 10.9128C9.83782 11.8389 8.45974 12.4008 6.95041 12.4008C3.66409 12.4008 1 9.73673 1 6.45041Z" fill="#1F5CF1" stroke="#1F5CF1" stroke-width="0.7" stroke-miterlimit="10" stroke-linecap="round" stroke-linejoin="round"/>
</svg>
